<?xml version="1.0" encoding="iso-8859-1"?>
<!-- Generator: Adobe Illustrator 19.0.0, SVG Export Plug-In . SVG Version: 6.00 Build 0)  -->
<svg version="1.1" id="Layer_1" xmlns="http://www.w3.org/2000/svg" xmlns:xlink="http://www.w3.org/1999/xlink" x="0px" y="0px"
	 viewBox="0 0 412.721 412.721" style="enable-background:new 0 0 412.721 412.721;" xml:space="preserve">
<g>
	<g>
		<rect x="9.391" y="144.042" style="fill:#CAA977;" width="64.396" height="166.435"/>
		<rect x="73.788" y="144.042" style="fill:#DFCAA3;" width="98.264" height="166.435"/>
		<circle style="fill:#333E48;" cx="122.92" cy="217.648" r="4.602"/>
		<circle style="fill:#333E48;" cx="122.92" cy="160.255" r="4.602"/>
		<g>
			<rect x="73.788" y="252.598" style="fill:#CAA977;" width="98.264" height="6.45"/>
			<rect x="73.788" y="195.47" style="fill:#CAA977;" width="98.264" height="6.45"/>
		</g>
		<circle style="fill:#333E48;" cx="122.92" cy="275.261" r="4.602"/>
		<rect x="9.391" y="310.477" style="fill:#A4A9AD;" width="11.577" height="22.043"/>
		<rect x="67.999" y="310.477" style="fill:#A4A9AD;" width="11.577" height="22.043"/>
		<rect x="160.474" y="310.477" style="fill:#A4A9AD;" width="11.578" height="22.043"/>
	</g>
	<g>
		<rect x="240.669" y="144.042" style="fill:#CAA977;" width="64.398" height="166.435"/>
		<rect x="305.066" y="144.042" style="fill:#DFCAA3;" width="98.264" height="166.435"/>
		<circle style="fill:#333E48;" cx="354.199" cy="217.648" r="4.602"/>
		<circle style="fill:#333E48;" cx="354.199" cy="160.255" r="4.602"/>
		<g>
			<rect x="305.066" y="252.598" style="fill:#CAA977;" width="98.264" height="6.45"/>
			<rect x="305.066" y="195.47" style="fill:#CAA977;" width="98.264" height="6.45"/>
		</g>
		<circle style="fill:#333E48;" cx="354.199" cy="275.261" r="4.602"/>
		<rect x="240.669" y="310.477" style="fill:#A4A9AD;" width="11.577" height="22.043"/>
		<rect x="299.277" y="310.477" style="fill:#A4A9AD;" width="11.577" height="22.043"/>
		<rect x="391.753" y="310.477" style="fill:#A4A9AD;" width="11.577" height="22.043"/>
	</g>
	<g>
		<rect x="172.051" y="144.042" style="fill:#DFCAA3;" width="133.015" height="45.719"/>
		<rect x="298.616" y="144.042" style="fill:#CAA977;" width="6.45" height="45.719"/>
		<rect x="172.051" y="144.042" style="fill:#CAA977;" width="6.45" height="45.719"/>
	</g>
	<g>
		<rect x="94.068" y="86.19" style="fill:#009BDE;" width="38.7" height="39.069"/>
		<path style="fill:#333E48;" d="M132.769,86.191c1.654,0,2.995-1.341,2.995-2.995c0-1.654-1.341-2.995-2.995-2.995h-38.7
			c-1.654,0-2.995,1.341-2.995,2.995c0,1.654,1.341,2.995,2.995,2.995H132.769z"/>
	</g>
	<g>
		<path style="fill:#3E4A57;" d="M403.33,125.259c5.187,0,9.391,4.204,9.391,9.391c0,5.187-4.204,9.392-9.391,9.392H68.362
			c-5.187,0-9.391-4.205-9.391-9.392s4.204-9.391,9.391-9.391C68.362,125.259,403.33,125.259,403.33,125.259z"/>
		<path style="fill:#333E48;" d="M73.788,125.259c5.187,0,9.391,4.204,9.391,9.391c0,5.187-4.205,9.392-9.391,9.392H9.391
			c-5.187,0-9.391-4.205-9.391-9.392s4.205-9.391,9.391-9.391C9.391,125.259,73.788,125.259,73.788,125.259z"/>
	</g>
</g>
<g>
</g>
<g>
</g>
<g>
</g>
<g>
</g>
<g>
</g>
<g>
</g>
<g>
</g>
<g>
</g>
<g>
</g>
<g>
</g>
<g>
</g>
<g>
</g>
<g>
</g>
<g>
</g>
<g>
</g>
</svg>
